/* XPM */
static char *icon[] = {
/* columns rows colors chars-per-pixel */
"32 32 3 1 ",
"  c #D84F10",
". c #003DE6",
"X c #808080",
/* pixels */
"XXXXXXXXXXXXXXXXXXXXXXXXXXXXXXXX",
"XXX.....XXXXXXXXX     XXXXXXXXXX",
"X.........XXXXXX         XXXXXXX",
"X....X.....XXXX    X        XXXX",
"X..XXXXX....XXX  XXXXXX       XX",
"X..XXXXXXX...XX  XXXXXXXXX    XX",
"X..XXXXXXX...XX  XXXXXXXXXXX  XX",
"X..XXXXXXXX..XXXXXXXXXXXXXXX  XX",
"X...XXXXXXX..XXXXXXXXXXXXXXX  XX",
"X...XXXXXXX...XXXXXXXXXXXXXX  XX",
"X...XXXXXXX...XXXXXXXXXXXXXX  XX",
"X..XXXXXXXXX..XXXXXXXXXXXXXX  XX",
"X..XXXXXXXX...XXXXXXXXXXXXXX  XX",
"X..XXXXXXXX...XXXXXXXXXXXXX   XX",
"X...XXXXXX...XXXXXXXXXXXXXX  XXX",
"X...XXXXX....XXXXXXXXXXXXX   XXX",
"X...XXXX....XXXXXXXXXXXXXX  XXXX",
"X...XX.....XXXXXXXXXXXXX    XXXX",
"X.........XXXXXXXXX        XXXXX",
"X...........XXX           XXXXXX",
"X..XX........XX      XXXXXXXXXXX",
"X..XXXXXXX....XXX        XXXXXXX",
"X..XXXXXXXX.....XXX         XXXX",
"X..XXXXXXXXXX....XXXXXX       XX",
"X..XXXXXXXXXXX....XXXXXXXX    XX",
"X..XXXXXXXXXXXX...XXXXXXXXXXXXXX",
"X..XXXXXXXXXXXXX..XXXXXXXXXXXXXX",
"X..XXXXXXXXXXXXX..XXXXXXXXXXXXXX",
"XXXXXXXXXXXXXXXXXXXXXXXXXXXXXXXX",
"XXXXXXXXXXXXXXXXXXXXXXXXXXXXXXXX",
"XXXXXXXXXXXXXXXXXXXXXXXXXXXXXXXX",
"XXXXXXXXXXXXXXXXXXXXXXXXXXXXXXXX"
};
